<mxfile host="app.diagrams.net" agent="Mozilla/5.0 (Macintosh; Intel Mac OS X 10_15_7) AppleWebKit/537.36 (KHTML, like Gecko) Chrome/140.0.0.0 Safari/537.36" version="28.2.5">
  <diagram name="AWS Architecture" id="GGDEE1TwLOAhYgXDWXzb">
    <mxGraphModel dx="660" dy="774" grid="1" gridSize="10" guides="1" tooltips="1" connect="1" arrows="1" fold="1" page="1" pageScale="1" pageWidth="827" pageHeight="1169" math="0" shadow="0">
      <root>
        <mxCell id="0" />
        <mxCell id="1" parent="0" />
        <mxCell id="bKrgSJHGDpncRiMMZAHf-26" value="" style="rounded=0;whiteSpace=wrap;html=1;fillColor=none;strokeColor=# 666666;" parent="1" vertex="1">
          <mxGeometry x="280" y="1110" width="780" height="110" as="geometry" />
        </mxCell>
        <mxCell id="bKrgSJHGDpncRiMMZAHf-64" value="AWS Cloud" style="group;fillColor=none;strokeColor=#00A4A6;fontColor=#147EBA;" parent="1" vertex="1">
          <mxGeometry x="1230" y="640" width="1000" height="800" as="geometry" />
        </mxCell>
        <mxCell id="bKrgSJHGDpncRiMMZAHf-65" value="Tokyo Region" style="group;fillColor=none;strokeColor=#00A4A6;fontColor=#147EBA;" parent="bKrgSJHGDpncRiMMZAHf-64" vertex="1">
          <mxGeometry x="30" y="20" width="960" height="760" as="geometry" />
        </mxCell>
        <mxCell id="bKrgSJHGDpncRiMMZAHf-66" value="VPC" style="group;fillColor=none;strokeColor=#8C4FFF;fontColor=#AAB7B8;" parent="bKrgSJHGDpncRiMMZAHf-65" vertex="1">
          <mxGeometry x="20" y="20" width="920" height="720" as="geometry" />
        </mxCell>
        <mxCell id="bKrgSJHGDpncRiMMZAHf-67" value="AZ-a" style="group;fillColor=none;strokeColor=#147EBA;fontColor=#147EBA;" parent="bKrgSJHGDpncRiMMZAHf-66" vertex="1">
          <mxGeometry x="20" y="20" width="440" height="680" as="geometry" />
        </mxCell>
        <mxCell id="bKrgSJHGDpncRiMMZAHf-68" value="Public Subnet" style="group;fillColor=none;strokeColor=#7AA116;fontColor=#248814;" parent="bKrgSJHGDpncRiMMZAHf-67" vertex="1">
          <mxGeometry x="20" y="20" width="400" height="300" as="geometry" />
        </mxCell>
        <mxCell id="bKrgSJHGDpncRiMMZAHf-69" value="Application Load Balancer" style="shape=mxgraph.aws4.applicationLoadBalancer;sketch=0;outlineConnect=0;verticalLabelPosition=bottom;verticalAlign=top;" parent="bKrgSJHGDpncRiMMZAHf-68" vertex="1">
          <mxGeometry x="130" y="20" width="120" height="60" as="geometry" />
        </mxCell>
        <mxCell id="bKrgSJHGDpncRiMMZAHf-70" value="Web Server (EC2)" style="shape=mxgraph.aws4.ec2;fillColor=#D45B07;sketch=0;outlineConnect=0;verticalLabelPosition=bottom;verticalAlign=top;" parent="bKrgSJHGDpncRiMMZAHf-68" vertex="1">
          <mxGeometry x="140" y="100" width="100" height="60" as="geometry" />
        </mxCell>
        <mxCell id="bKrgSJHGDpncRiMMZAHf-75" style="edgeStyle=orthogonalEdgeStyle;rounded=1;orthogonalLoop=1;strokeWidth=1;endArrow=block;" parent="bKrgSJHGDpncRiMMZAHf-68" source="bKrgSJHGDpncRiMMZAHf-69" target="bKrgSJHGDpncRiMMZAHf-70" edge="1">
          <mxGeometry relative="1" as="geometry" />
        </mxCell>
        <mxCell id="bKrgSJHGDpncRiMMZAHf-71" value="Private Subnet" style="group;fillColor=none;strokeColor=#7AA116;fontColor=#248814;" parent="bKrgSJHGDpncRiMMZAHf-67" vertex="1">
          <mxGeometry x="20" y="360" width="400" height="300" as="geometry" />
        </mxCell>
        <mxCell id="bKrgSJHGDpncRiMMZAHf-72" value="App Server (EC2)" style="shape=mxgraph.aws4.ec2;fillColor=#D45B07;sketch=0;outlineConnect=0;verticalLabelPosition=bottom;verticalAlign=top;" parent="bKrgSJHGDpncRiMMZAHf-71" vertex="1">
          <mxGeometry x="140" y="40" width="100" height="60" as="geometry" />
        </mxCell>
        <mxCell id="bKrgSJHGDpncRiMMZAHf-73" value="DB Server (RDS)" style="shape=mxgraph.aws4.rds;fillColor=#D45B07;sketch=0;outlineConnect=0;verticalLabelPosition=bottom;verticalAlign=top;" parent="bKrgSJHGDpncRiMMZAHf-71" vertex="1">
          <mxGeometry x="140" y="140" width="100" height="60" as="geometry" />
        </mxCell>
        <mxCell id="bKrgSJHGDpncRiMMZAHf-77" style="edgeStyle=orthogonalEdgeStyle;rounded=1;orthogonalLoop=1;strokeWidth=1;endArrow=block;" parent="bKrgSJHGDpncRiMMZAHf-71" source="bKrgSJHGDpncRiMMZAHf-72" target="bKrgSJHGDpncRiMMZAHf-73" edge="1">
          <mxGeometry relative="1" as="geometry" />
        </mxCell>
        <mxCell id="bKrgSJHGDpncRiMMZAHf-76" style="edgeStyle=orthogonalEdgeStyle;rounded=1;orthogonalLoop=1;strokeWidth=1;endArrow=block;" parent="bKrgSJHGDpncRiMMZAHf-67" source="bKrgSJHGDpncRiMMZAHf-70" target="bKrgSJHGDpncRiMMZAHf-72" edge="1">
          <mxGeometry relative="1" as="geometry" />
        </mxCell>
        <mxCell id="bKrgSJHGDpncRiMMZAHf-74" value="Security Group" style="shape=mxgraph.aws4.securityGroup;strokeColor=#DD3522;fontColor=#DD3522;sketch=0;outlineConnect=0;verticalLabelPosition=bottom;verticalAlign=top;" parent="bKrgSJHGDpncRiMMZAHf-66" vertex="1">
          <mxGeometry x="600" y="100" width="100" height="60" as="geometry" />
        </mxCell>
        <mxCell id="bKrgSJHGDpncRiMMZAHf-78" style="edgeStyle=orthogonalEdgeStyle;rounded=1;orthogonalLoop=1;strokeWidth=1;endArrow=block;" parent="bKrgSJHGDpncRiMMZAHf-66" source="bKrgSJHGDpncRiMMZAHf-70" target="bKrgSJHGDpncRiMMZAHf-74" edge="1">
          <mxGeometry relative="1" as="geometry" />
        </mxCell>
        <mxCell id="bKrgSJHGDpncRiMMZAHf-79" style="edgeStyle=orthogonalEdgeStyle;rounded=1;orthogonalLoop=1;strokeWidth=1;endArrow=block;" parent="bKrgSJHGDpncRiMMZAHf-66" source="bKrgSJHGDpncRiMMZAHf-72" target="bKrgSJHGDpncRiMMZAHf-74" edge="1">
          <mxGeometry relative="1" as="geometry" />
        </mxCell>
      </root>
    </mxGraphModel>
  </diagram>
</mxfile>
